# xmcd
# Track frame offsets:
# 150
# 17761
# 32878
# 47530
# 63321
# 78050
# 88635
# 106992
# 123833
# 138184
# 151998
# 165749
# 183260
# 202397
# 216246
# 228553
# 246177
#
# Disc length: 3502 seconds
# Revision: 0
# Processed by: cddbd v1.5.1PL0 Copyright (c) Steve Scherf et al.
# Submitted via: VisiTrax 2.9.10.228 - For more info visit www.synapsa.com
#
DISCID=e00dac11
DTITLE=Various Artist - Promo Only Country July 2005
DYEAR=2005
DGENRE=
TTITLE0=Tim McGraw - Do You Want Fries With That
TTITLE1=Faith Hill - Mississippi Girl
TTITLE2=Brooks and Dunn - Play Something Country
TTITLE3=Jo Dee Messina - Delicious Surprise (I Believe It)
TTITLE4=Lonestar - You're Like Comin Home
TTITLE5=Clint Black - Rainbow In The Rain
TTITLE6=Gary Allan - Best I Ever Had
TTITLE7=Andy Griggs - This I Gotta See
TTITLE8=Tracy Lawrence - Used To The Pain
TTITLE9=Phil Vassar - Good Ole Days
TTITLE10=Erika Jo - I Break Things
TTITLE11=Kerry Harvick - That's What Your Love Does
TTITLE12=Sawyer Brown - Thay Don't Understand
TTITLE13=Shelly Fairchild - Kiss Me
TTITLE14=Matt Jenkins - King Of The Castle
TTITLE15=Lila McCann - I Can Do This
TTITLE16=Dwight Yoakam - International Heartache
EXTD=
EXTT0=
EXTT1=
EXTT2=
EXTT3=
EXTT4=
EXTT5=
EXTT6=
EXTT7=
EXTT8=
EXTT9=
EXTT10=
EXTT11=
EXTT12=
EXTT13=
EXTT14=
EXTT15=
EXTT16=
PLAYORDER=
